<svg xmlns="http://www.w3.org/2000/svg" xmlns:xlink="http://www.w3.org/1999/xlink" viewBox="0 0 48 48" width="48px" height="48px"><defs><linearGradient id="JpQJiU4af3eFj7gMogrsUb" x1="17.5" x2="17.5" y1="7" y2="41" gradientTransform="matrix(1.03 0 0 1 5.97 0)" gradientUnits="userSpaceOnUse"><stop offset="0" stop-color="#f8403f"/><stop offset="1" stop-color="#b30e00"/></linearGradient><linearGradient id="JpQJiU4af3eFj7gMogrsUa" x1="1" x2="34" y1="24" y2="24" gradientTransform="matrix(1.03 0 0 1 5.97 0)" gradientUnits="userSpaceOnUse"><stop offset="0" stop-color="#e65c5c" stop-opacity="0"/><stop offset=".433" stop-color="#e45b5b" stop-opacity=".015"/><stop offset=".589" stop-color="#de5655" stop-opacity=".072"/><stop offset=".7" stop-color="#d44d4c" stop-opacity=".169"/><stop offset=".79" stop-color="#c44140" stop-opacity=".309"/><stop offset=".867" stop-color="#b1322f" stop-opacity=".491"/><stop offset=".934" stop-color="#991f1b" stop-opacity=".711"/><stop offset=".994" stop-color="#7c0903" stop-opacity=".97"/><stop offset="1" stop-color="#790600"/></linearGradient><linearGradient id="JpQJiU4af3eFj7gMogrsUc" x1="-1385" x2="-1352" y1="-860" y2="-860" gradientTransform="matrix(1.03 0 0 1 1433.97 884)" xlink:href="#JpQJiU4af3eFj7gMogrsUa"/><linearGradient id="JpQJiU4af3eFj7gMogrsUd" x1="-527" x2="-494" y1="-2288" y2="-2288" gradientTransform="matrix(1.03 0 0 1 549.97 2312)" xlink:href="#JpQJiU4af3eFj7gMogrsUa"/><linearGradient id="JpQJiU4af3eFj7gMogrsUe" x1="859" x2="892" y1="-1404" y2="-1404" gradientTransform="matrix(1.03 0 0 1 -878.03 1428)" xlink:href="#JpQJiU4af3eFj7gMogrsUa"/><linearGradient id="JpQJiU4af3eFj7gMogrsUf" x1="24" x2="24" y1="18.1" y2="29.057" gradientUnits="userSpaceOnUse"><stop offset="0" stop-color="#fff"/><stop offset=".325" stop-color="#fbfbfc"/><stop offset=".662" stop-color="#eeeef4"/><stop offset="1" stop-color="#dadae6"/></linearGradient></defs><g data-name="buttons"><rect width="34" height="34" x="7" y="7" fill="url(#JpQJiU4af3eFj7gMogrsUb)" rx="3"/><g opacity=".5"><rect width="34" height="34" x="7" y="7" fill="url(#JpQJiU4af3eFj7gMogrsUa)" rx="3"/><rect width="34" height="34" x="7" y="7" fill="url(#JpQJiU4af3eFj7gMogrsUc)" rx="3" transform="rotate(-90 24 24)"/><rect width="34" height="34" x="7" y="7" fill="url(#JpQJiU4af3eFj7gMogrsUd)" rx="3" transform="rotate(180 24 24)"/><rect width="34" height="34" x="7" y="7" fill="url(#JpQJiU4af3eFj7gMogrsUe)" rx="3" transform="rotate(90 24 24)"/></g><path fill="url(#JpQJiU4af3eFj7gMogrsUf)" d="M15.806,26.077a1.061,1.061,0,0,0-.4-.879,4.937,4.937,0,0,0-1.4-.653,13.136,13.136,0,0,1-1.632-.652,3.106,3.106,0,0,1-2.062-2.8,2.516,2.516,0,0,1,.514-1.564,3.324,3.324,0,0,1,1.453-1.055A5.641,5.641,0,0,1,14.4,18.1a4.927,4.927,0,0,1,2.05.41,3.255,3.255,0,0,1,1.41,1.168,3.066,3.066,0,0,1,.5,1.733H15.813a1.288,1.288,0,0,0-.4-1.011,1.54,1.54,0,0,0-1.074-.359,1.74,1.74,0,0,0-1.082.3.9.9,0,0,0,.041,1.516,5.479,5.479,0,0,0,1.537.688,9.425,9.425,0,0,1,1.806.766,3.054,3.054,0,0,1,1.719,2.746,2.606,2.606,0,0,1-1.049,2.2,4.641,4.641,0,0,1-2.877.8,5.679,5.679,0,0,1-2.334-.465,3.522,3.522,0,0,1-1.574-1.274A3.336,3.336,0,0,1,10,25.454h2.564a1.639,1.639,0,0,0,.441,1.263,2.074,2.074,0,0,0,1.431.406,1.641,1.641,0,0,0,1-.274A.909.909,0,0,0,15.806,26.077ZM28.655,23.8a6.309,6.309,0,0,1-.576,2.761,4.262,4.262,0,0,1-1.635,1.85,4.538,4.538,0,0,1-2.415.648,4.606,4.606,0,0,1-2.4-.626A4.268,4.268,0,0,1,19.99,26.64a6.139,6.139,0,0,1-.615-2.673v-.6a6.354,6.354,0,0,1,.571-2.765,4.265,4.265,0,0,1,1.64-1.849,4.565,4.565,0,0,1,2.429-.652,4.517,4.517,0,0,1,2.4.645,4.333,4.333,0,0,1,1.643,1.834,6.163,6.163,0,0,1,.594,2.728Zm-2.6-.446a4.508,4.508,0,0,0-.528-2.414,1.692,1.692,0,0,0-1.511-.824q-1.923,0-2.032,2.9l-.008.784a4.624,4.624,0,0,0,.518,2.409,1.792,1.792,0,0,0,3.03.016,4.518,4.518,0,0,0,.531-2.381Zm9.39,2.725a1.061,1.061,0,0,0-.4-.879,4.951,4.951,0,0,0-1.395-.653,13.136,13.136,0,0,1-1.632-.652,3.106,3.106,0,0,1-2.062-2.8,2.516,2.516,0,0,1,.514-1.564,3.324,3.324,0,0,1,1.453-1.055,5.64,5.64,0,0,1,2.112-.377,4.929,4.929,0,0,1,2.051.41,3.255,3.255,0,0,1,1.41,1.168,3.066,3.066,0,0,1,.5,1.733H35.451a1.292,1.292,0,0,0-.4-1.011,1.54,1.54,0,0,0-1.074-.359,1.738,1.738,0,0,0-1.082.3.9.9,0,0,0,.041,1.516,5.466,5.466,0,0,0,1.537.688,9.425,9.425,0,0,1,1.806.766A3.054,3.054,0,0,1,38,26.061a2.606,2.606,0,0,1-1.049,2.2,4.641,4.641,0,0,1-2.877.8,5.679,5.679,0,0,1-2.334-.465,3.522,3.522,0,0,1-1.574-1.274,3.336,3.336,0,0,1-.528-1.864H32.2a1.639,1.639,0,0,0,.441,1.263,2.074,2.074,0,0,0,1.431.406,1.641,1.641,0,0,0,1-.274A.911.911,0,0,0,35.444,26.077Z"/></g></svg>